# xmcd
#
# Track frame offsets:
#  150
#  13895
#  32699
#  47068
#  71706
#  89823
#  110615
#  136601
#  148621
#  158651
#  175668
#  192699
#  220616
#  231640
#  249366
#  277040
#  294617
#  309724
#  336515
#
# Disc length: 4672 seconds
#
# Revision: 0
# Processed by: cddbd v1.5.2PL0 Copyright (c) Steve Scherf et al.
# Submitted via: AltoMP3_Maker 3.0
#
DISCID=2b123e13
DTITLE=Tom Russell - Tonight We Ride - The Tom Russell Cowboy Anthology
DYEAR=1900
DGENRE=
TTITLE0=Tonight We Ride
TTITLE1=Navajo Rug w/ Ian Tyson
TTITLE2=The Rose of the San Joaquin
TTITLE3=Claude Dallas
TTITLE4=Bucking Horse Moon
TTITLE5=El Llano Estacado w/ Brian Burns
TTITLE6=The Banks of the Musselshell
TTITLE7=Indian Cowboy
TTITLE8=Zane Grey
TTITLE9=Alkali
TTITLE10=Hallie Lonnigan
TTITLE11=The Sky Above, the Mud Below w/ Ramblin' Jack
TTITLE12=Rayburn Crane
TTITLE13=The Heart of a Bucking Horse
TTITLE14=South Coast
TTITLE15=The Basque
TTITLE16=Alberta Blue
TTITLE17=Gallo del Cielo w/ Ian Tyson
TTITLE18=All This Way for the Short Ride
EXTD=
EXTT0=
EXTT1=
EXTT2=
EXTT3=
EXTT4=
EXTT5=
EXTT6=
EXTT7=
EXTT8=
EXTT9=
EXTT10=
EXTT11=
EXTT12=
EXTT13=
EXTT14=
EXTT15=
EXTT16=
EXTT17=
EXTT18=
PLAYORDER=
